<?xml version="1.0" encoding="utf-8"?>
<!-- Generator: Adobe Illustrator 27.8.1, SVG Export Plug-In . SVG Version: 6.00 Build 0)  -->
<svg version="1.1"
	 id="svg17" xmlns:sodipodi="http://sodipodi.sourceforge.net/DTD/sodipodi-0.dtd" xmlns:svg="http://www.w3.org/2000/svg" xmlns:inkscape="http://www.inkscape.org/namespaces/inkscape"
	 xmlns="http://www.w3.org/2000/svg" xmlns:xlink="http://www.w3.org/1999/xlink" x="0px" y="0px" viewBox="0 0 531 120.2"
	 style="enable-background:new 0 0 531 120.2;" xml:space="preserve">
<style type="text/css">
	.st0{fill:#5873FB;}
	.st1{fill:url(#SVGID_1_);}
</style>
<sodipodi:namedview  bordercolor="#000000" borderopacity="0.25" id="namedview19" inkscape:deskcolor="#d1d1d1" inkscape:pagecheckerboard="0" inkscape:pageopacity="0.0" inkscape:showpageshadow="2" pagecolor="#ffffff">
	</sodipodi:namedview>
<path class="st0" d="M427.3,43.5c-9.2,0-16.7,7.4-16.7,16.6s7.5,16.7,16.7,16.7S444,69.3,444,60.2S436.5,43.5,427.3,43.5z"/>
<path class="st0" d="M168.5,43.5c-9.2,0-16.7,7.4-16.7,16.6s7.5,16.7,16.7,16.7c9.2,0,16.6-7.5,16.6-16.7S177.7,43.5,168.5,43.5z"/>
<path class="st0" d="M118.5,43.5c-9.2,0-16.7,7.4-16.7,16.6s7.5,16.7,16.7,16.7c9.2,0,16.6-7.5,16.6-16.7S127.7,43.5,118.5,43.5z"/>
<path class="st0" d="M377.4,43.5c-9.2,0-16.7,7.4-16.7,16.6s7.5,16.7,16.7,16.7S394,69.3,394,60.2S386.5,43.5,377.4,43.5z"/>
<linearGradient id="SVGID_1_" gradientUnits="userSpaceOnUse" x1="265.4951" y1="120.8803" x2="265.4951" y2="-0.662">
	<stop  offset="5.327789e-09" style="stop-color:#818CF8"/>
	<stop  offset="1" style="stop-color:#2B59FF"/>
</linearGradient>
<path class="st1" d="M522.5-0.7L263.8,22L262,0.7L0,23.6l8.5,97.3l258.7-22.6l1.9,21.3l262-22.9L522.5-0.7z M57.1,67.8
	C53.9,81,46.9,83,40.7,83c-6.3,0-13.6-3.6-16.4-15.2c0,0-2.7-11.7-7.3-30h6.4c5.4,22.3,6.9,28.8,6.9,28.8C32,73,36.6,76.8,40.7,76.8
	c4.2,0,8.2-1.5,10.3-10.3c0,0,2.3-8.7,6.8-28.8h6.4C60.3,54.6,57.1,67.8,57.1,67.8z M91.3,43.5c-9.2,0.1-16.6,7.5-16.6,16.7v22.4
	h-6.2V60.2c0-12.6,10.2-22.8,22.8-22.9V43.5z M118.5,83c-12.6,0-22.9-10.3-22.9-22.9c0-12.6,10.3-22.8,22.9-22.8
	s22.8,10.2,22.8,22.8C141.3,72.8,131.1,83,118.5,83z M168.5,83c-12.6,0-22.9-10.3-22.9-22.9c0-12.6,10.3-22.8,22.9-22.8
	s22.8,10.2,22.8,22.8C191.3,72.8,181.1,83,168.5,83z M255.1,82.6h-6.2v-29c0-5.7-4.6-10.2-10.3-10.2c-5.7,0-10.3,4.6-10.3,10.3v29
	h-6.2v-29c0-5.7-4.6-10.2-10.3-10.2c-5.6,0-10.2,4.6-10.2,10.3v29h-6.2v-29c0-9.1,7.3-16.4,16.4-16.4c5.5,0,10.3,2.7,13.4,6.8
	c3-4.2,7.8-6.8,13.4-6.8c9.1,0,16.4,7.3,16.4,16.4V82.6z M315.9,67.8C312.8,81,305.8,83,299.6,83c-6.3,0-13.6-3.6-16.4-15.2
	c0,0-2.7-11.7-7.3-30h6.4c5.4,22.3,6.9,28.8,6.9,28.8c1.6,6.4,6.2,10.3,10.3,10.3c4.2,0,8.2-1.5,10.3-10.3c0,0,2.3-8.7,6.8-28.8h6.4
	C319.1,54.6,315.9,67.8,315.9,67.8z M350.2,43.5c-9.2,0.1-16.6,7.5-16.6,16.7v22.4h-6.2V60.2c0-12.6,10.2-22.8,22.8-22.9V43.5z
	 M377.4,83c-12.6,0-22.9-10.3-22.9-22.9c0-12.6,10.3-22.8,22.9-22.8c12.6,0,22.8,10.2,22.8,22.8C400.1,72.8,390,83,377.4,83z
	 M427.3,83c-12.6,0-22.9-10.3-22.9-22.9c0-12.6,10.3-22.8,22.9-22.8c12.6,0,22.8,10.2,22.8,22.8C450.1,72.8,439.9,83,427.3,83z
	 M514,82.6h-6.2v-29c0-5.7-4.6-10.2-10.3-10.2s-10.3,4.6-10.3,10.3v29h-6.2v-29c0-5.7-4.6-10.2-10.3-10.2c-5.6,0-10.2,4.6-10.2,10.3
	v29h-6.2v-29c0-9.1,7.3-16.4,16.4-16.4c5.5,0,10.3,2.7,13.4,6.8c3-4.2,7.8-6.8,13.4-6.8c9.1,0,16.4,7.3,16.4,16.4V82.6z"/>
</svg>
